<?xml version="1.0" encoding="UTF-8" standalone="no"?>
<!-- Generator: Adobe Illustrator 16.0.0, SVG Export Plug-In . SVG Version: 6.00 Build 0)  -->

<svg
   xmlns:dc="http://purl.org/dc/elements/1.1/"
   xmlns:cc="http://creativecommons.org/ns#"
   xmlns:rdf="http://www.w3.org/1999/02/22-rdf-syntax-ns#"
   xmlns:svg="http://www.w3.org/2000/svg"
   xmlns="http://www.w3.org/2000/svg"
   xmlns:sodipodi="http://sodipodi.sourceforge.net/DTD/sodipodi-0.dtd"
   xmlns:inkscape="http://www.inkscape.org/namespaces/inkscape"
   version="1.1"
   id="Layer_1"
   x="0px"
   y="0px"
   width="305.74301"
   height="56.695"
   viewBox="0 0 305.74302 56.695"
   enable-background="new 0 0 566.93 566.93"
   xml:space="preserve"
   inkscape:version="0.91 r13725"
   sodipodi:docname="textografo_logo_negative.svg"><metadata
     id="metadata35"><rdf:RDF><cc:Work
         rdf:about=""><dc:format>image/svg+xml</dc:format><dc:type
           rdf:resource="http://purl.org/dc/dcmitype/StillImage" /><dc:title></dc:title></cc:Work></rdf:RDF></metadata><defs
     id="defs33" /><sodipodi:namedview
     pagecolor="#ffffff"
     bordercolor="#666666"
     borderopacity="1"
     objecttolerance="10"
     gridtolerance="10"
     guidetolerance="10"
     inkscape:pageopacity="0"
     inkscape:pageshadow="2"
     inkscape:window-width="1412"
     inkscape:window-height="855"
     id="namedview31"
     showgrid="false"
     fit-margin-top="0"
     fit-margin-left="0"
     fit-margin-right="0"
     fit-margin-bottom="0"
     inkscape:zoom="0.41627715"
     inkscape:cx="215.33039"
     inkscape:cy="25.373004"
     inkscape:window-x="0"
     inkscape:window-y="0"
     inkscape:window-maximized="1"
     inkscape:current-layer="Layer_1" /><g
     id="g3"
     transform="translate(-130.593,-252.143)"><polygon
       points="181.32,302.869 142.527,302.869 142.527,283.476 136.562,283.476 136.562,308.838 187.286,308.838 187.286,258.092 161.924,258.092 161.924,264.059 181.32,264.059 "
       id="polygon5"
       style="fill:#d5e835" /><path
       d="m 136.562,279.744 5.965,0 0,-5.967 3.731,0 0,5.967 5.966,0 0,-5.967 5.994,0 0,-5.968 -5.994,0 0,-3.731 5.994,0 0,-5.966 -5.994,0 0,-5.969 -5.966,0 0,5.969 -3.731,0 0,-5.969 -5.965,0 0,5.969 -5.969,0 0,5.966 5.969,0 0,3.731 -5.969,0 0,5.968 5.969,0 0,5.967 z m 5.965,-15.666 3.731,0 0,3.731 -3.731,0 0,-3.731 z"
       id="path7"
       inkscape:connector-curvature="0"
       style="fill:#5daac7" /></g><g
     id="g9"
     transform="translate(-130.593,-252.143)"><path
       d="m 202.76,276.209 0,-4.837 4.23,0 0,-7.001 5.944,0 0,7.001 6.046,0 0,4.837 -6.046,0 0,11.236 c 0,1.074 0.193,1.965 0.582,2.67 0.385,0.703 1.251,1.057 2.595,1.057 0.402,0 0.837,-0.041 1.308,-0.125 0.469,-0.084 0.89,-0.211 1.26,-0.379 l 0.201,4.738 c -0.537,0.199 -1.178,0.359 -1.915,0.477 -0.737,0.118 -1.444,0.176 -2.115,0.176 -1.613,0 -2.922,-0.225 -3.931,-0.68 -1.006,-0.453 -1.805,-1.076 -2.392,-1.863 -0.588,-0.789 -0.993,-1.695 -1.21,-2.721 -0.216,-1.023 -0.327,-2.123 -0.327,-3.301 l 0,-11.285 -4.23,0 z"
       id="path11"
       inkscape:connector-curvature="0"
       style="fill:#ffffff" /><path
       d="m 245.813,283.765 c 0,0.271 0,0.538 0,0.808 0,0.271 -0.018,0.537 -0.054,0.807 l -18.385,0 c 0.066,0.873 0.291,1.67 0.679,2.391 0.385,0.725 0.898,1.346 1.538,1.867 0.636,0.521 1.358,0.932 2.166,1.234 0.805,0.301 1.644,0.451 2.519,0.451 1.51,0 2.787,-0.275 3.828,-0.83 1.039,-0.553 1.896,-1.318 2.569,-2.291 l 4.028,3.225 c -2.382,3.223 -5.842,4.836 -10.377,4.836 -1.879,0 -3.61,-0.297 -5.189,-0.883 -1.578,-0.588 -2.946,-1.416 -4.104,-2.494 -1.161,-1.072 -2.066,-2.393 -2.72,-3.953 -0.654,-1.564 -0.981,-3.336 -0.981,-5.317 0,-1.945 0.327,-3.717 0.981,-5.314 0.653,-1.596 1.552,-2.953 2.694,-4.08 1.143,-1.124 2.493,-1.998 4.056,-2.62 1.562,-0.622 3.249,-0.932 5.063,-0.932 1.679,0 3.232,0.277 4.657,0.829 1.431,0.557 2.664,1.379 3.705,2.471 1.041,1.092 1.855,2.454 2.443,4.08 0.589,1.628 0.884,3.535 0.884,5.715 z m -6.045,-2.721 c 0,-0.771 -0.108,-1.51 -0.326,-2.215 -0.222,-0.706 -0.566,-1.325 -1.034,-1.863 -0.472,-0.537 -1.067,-0.967 -1.789,-1.284 -0.721,-0.319 -1.57,-0.479 -2.545,-0.479 -1.813,0 -3.351,0.548 -4.608,1.638 -1.258,1.093 -1.959,2.494 -2.09,4.204 l 12.392,0 z"
       id="path13"
       inkscape:connector-curvature="0"
       style="fill:#ffffff" /><path
       d="m 255.634,282.707 -8.713,-11.335 7.255,0 5.237,7.509 5.39,-7.509 6.953,0 -8.665,11.335 9.877,12.848 -7.358,0 -6.295,-8.814 -6.349,8.814 -7.152,0 9.82,-12.848 z"
       id="path15"
       inkscape:connector-curvature="0"
       style="fill:#ffffff" /><path
       d="m 273.594,276.209 0,-4.837 4.233,0 0,-7.001 5.943,0 0,7.001 6.047,0 0,4.837 -6.047,0 0,11.236 c 0,1.074 0.191,1.965 0.579,2.67 0.384,0.703 1.252,1.057 2.595,1.057 0.403,0 0.841,-0.041 1.311,-0.125 0.47,-0.084 0.89,-0.211 1.257,-0.379 l 0.205,4.738 c -0.54,0.199 -1.177,0.359 -1.915,0.477 -0.741,0.117 -1.445,0.176 -2.115,0.176 -1.613,0 -2.924,-0.225 -3.932,-0.68 -1.008,-0.453 -1.807,-1.076 -2.394,-1.863 -0.587,-0.789 -0.991,-1.695 -1.209,-2.721 -0.219,-1.023 -0.325,-2.123 -0.325,-3.301 l 0,-11.285 -4.233,0 z"
       id="path17"
       inkscape:connector-curvature="0"
       style="fill:#ffffff" /><path
       d="m 292.164,283.362 c 0,-1.914 0.344,-3.652 1.032,-5.212 0.688,-1.562 1.62,-2.896 2.796,-4.006 1.177,-1.107 2.57,-1.965 4.182,-2.571 1.612,-0.604 3.324,-0.905 5.139,-0.905 1.813,0 3.527,0.302 5.138,0.905 1.614,0.606 3.009,1.464 4.183,2.571 1.175,1.109 2.106,2.443 2.795,4.006 0.689,1.56 1.034,3.298 1.034,5.212 0,1.917 -0.345,3.661 -1.034,5.241 -0.688,1.578 -1.62,2.93 -2.795,4.055 -1.174,1.125 -2.568,2.008 -4.183,2.645 -1.61,0.639 -3.324,0.959 -5.138,0.959 -1.814,0 -3.526,-0.32 -5.139,-0.959 -1.611,-0.637 -3.005,-1.52 -4.182,-2.645 -1.176,-1.125 -2.108,-2.477 -2.796,-4.055 -0.688,-1.58 -1.032,-3.324 -1.032,-5.241 z m 6.147,0 c 0,0.94 0.142,1.884 0.427,2.823 0.285,0.939 0.713,1.779 1.285,2.518 0.571,0.742 1.294,1.344 2.168,1.814 0.872,0.469 1.914,0.707 3.122,0.707 1.208,0 2.251,-0.238 3.123,-0.707 0.874,-0.471 1.595,-1.072 2.165,-1.814 0.573,-0.738 1,-1.578 1.286,-2.518 0.284,-0.939 0.429,-1.883 0.429,-2.823 0,-0.939 -0.145,-1.871 -0.429,-2.793 -0.286,-0.926 -0.713,-1.758 -1.286,-2.494 -0.57,-0.738 -1.291,-1.334 -2.165,-1.79 -0.872,-0.452 -1.915,-0.68 -3.123,-0.68 -1.208,0 -2.25,0.228 -3.122,0.68 -0.874,0.456 -1.597,1.052 -2.168,1.79 -0.572,0.736 -1,1.568 -1.285,2.494 -0.286,0.922 -0.427,1.854 -0.427,2.793 z"
       id="path19"
       inkscape:connector-curvature="0"
       style="fill:#ffffff" /><path
       d="m 347.376,271.372 0,22.017 c 0,2.184 -0.27,4.158 -0.807,5.92 -0.536,1.762 -1.369,3.26 -2.493,4.484 -1.126,1.225 -2.543,2.174 -4.257,2.846 -1.713,0.674 -3.746,1.008 -6.096,1.008 -0.974,0 -2.005,-0.086 -3.099,-0.252 -1.092,-0.17 -2.167,-0.42 -3.226,-0.756 -1.056,-0.334 -2.072,-0.756 -3.047,-1.258 -0.974,-0.504 -1.848,-1.078 -2.619,-1.715 l 3.475,-4.684 c 1.175,1.107 2.503,1.955 3.979,2.543 1.48,0.588 2.976,0.881 4.487,0.881 1.443,0 2.66,-0.211 3.65,-0.631 0.991,-0.422 1.78,-1.002 2.369,-1.746 0.587,-0.74 1.007,-1.617 1.259,-2.629 0.254,-1.012 0.379,-2.123 0.379,-3.336 l 0,-1.77 -0.102,0 c -0.875,1.188 -1.99,2.094 -3.352,2.723 -1.36,0.627 -2.878,0.941 -4.557,0.941 -1.815,0 -3.462,-0.336 -4.938,-1.008 -1.478,-0.67 -2.729,-1.578 -3.754,-2.721 -1.025,-1.143 -1.823,-2.477 -2.395,-4.006 -0.57,-1.527 -0.855,-3.148 -0.855,-4.862 0,-1.746 0.277,-3.391 0.833,-4.935 0.554,-1.545 1.339,-2.891 2.365,-4.032 1.024,-1.142 2.269,-2.047 3.729,-2.72 1.462,-0.672 3.1,-1.008 4.913,-1.008 1.713,0 3.307,0.352 4.783,1.059 1.48,0.704 2.654,1.798 3.53,3.273 l 0.1,0 0,-3.628 5.746,0 z m -12.898,4.233 c -1.108,0 -2.09,0.201 -2.945,0.604 -0.858,0.399 -1.582,0.946 -2.166,1.63 -0.589,0.686 -1.042,1.5 -1.36,2.437 -0.319,0.937 -0.479,1.942 -0.479,3.01 0,0.973 0.159,1.91 0.479,2.812 0.318,0.904 0.771,1.719 1.36,2.438 0.584,0.719 1.308,1.299 2.166,1.732 0.855,0.438 1.819,0.652 2.896,0.652 1.108,0 2.107,-0.207 2.997,-0.627 0.89,-0.418 1.644,-0.98 2.268,-1.682 0.62,-0.703 1.1,-1.514 1.436,-2.436 0.335,-0.92 0.504,-1.883 0.504,-2.891 0,-1.035 -0.169,-2.023 -0.504,-2.961 -0.336,-0.937 -0.815,-1.755 -1.436,-2.46 -0.624,-0.7 -1.37,-1.256 -2.243,-1.655 -0.872,-0.401 -1.864,-0.603 -2.973,-0.603 z"
       id="path21"
       inkscape:connector-curvature="0"
       style="fill:#ffffff" /><path
       d="m 351.912,271.372 5.792,0 0,4.029 0.102,0 c 0.671,-1.409 1.611,-2.551 2.818,-3.424 1.211,-0.87 2.622,-1.31 4.234,-1.31 0.236,0 0.485,0.01 0.755,0.024 0.27,0.019 0.505,0.061 0.708,0.126 l 0,5.542 c -0.404,-0.1 -0.75,-0.166 -1.036,-0.199 -0.285,-0.035 -0.562,-0.054 -0.831,-0.054 -1.378,0 -2.484,0.253 -3.323,0.756 -0.843,0.505 -1.495,1.109 -1.967,1.813 -0.47,0.706 -0.789,1.429 -0.956,2.168 -0.168,0.74 -0.252,1.329 -0.252,1.763 l 0,12.947 -6.044,0 0,-24.181 z"
       id="path23"
       inkscape:connector-curvature="0"
       style="fill:#ffffff" /><path
       d="m 384.319,292.482 -0.152,0 c -0.602,1.074 -1.578,1.957 -2.921,2.645 -1.343,0.688 -2.87,1.031 -4.584,1.031 -0.974,0 -1.989,-0.123 -3.047,-0.375 -1.058,-0.254 -2.033,-0.674 -2.924,-1.262 -0.89,-0.586 -1.629,-1.357 -2.216,-2.316 -0.588,-0.957 -0.881,-2.141 -0.881,-3.551 0,-1.814 0.51,-3.258 1.537,-4.334 1.023,-1.074 2.342,-1.897 3.951,-2.469 1.615,-0.572 3.402,-0.946 5.367,-1.134 1.965,-0.185 3.887,-0.275 5.77,-0.275 l 0,-0.605 c 0,-1.513 -0.549,-2.628 -1.641,-3.352 -1.089,-0.721 -2.39,-1.084 -3.901,-1.084 -1.276,0 -2.504,0.271 -3.677,0.808 -1.18,0.539 -2.15,1.193 -2.924,1.966 l -3.123,-3.679 c 1.378,-1.275 2.963,-2.234 4.761,-2.871 1.795,-0.638 3.619,-0.957 5.468,-0.957 2.148,0 3.922,0.302 5.314,0.905 1.393,0.606 2.492,1.395 3.299,2.369 0.807,0.974 1.369,2.065 1.688,3.274 0.317,1.211 0.479,2.419 0.479,3.628 l 0,14.71 -5.644,0 0,-3.072 z m -0.099,-7.961 -1.36,0 c -0.976,0 -1.998,0.043 -3.074,0.127 -1.073,0.084 -2.065,0.27 -2.971,0.555 -0.908,0.285 -1.662,0.688 -2.268,1.211 -0.606,0.518 -0.906,1.232 -0.906,2.139 0,0.572 0.126,1.051 0.378,1.436 0.251,0.385 0.578,0.697 0.982,0.932 0.402,0.232 0.855,0.402 1.36,0.506 0.503,0.1 1.007,0.148 1.509,0.148 2.084,0 3.662,-0.551 4.736,-1.662 1.076,-1.107 1.613,-2.619 1.613,-4.533 l 0,-0.859 z"
       id="path25"
       inkscape:connector-curvature="0"
       style="fill:#ffffff" /><path
       d="m 397.19,276.209 -4.584,0 0,-4.837 4.584,0 0,-3.576 c 0,-1.444 0.158,-2.826 0.479,-4.156 0.318,-1.325 0.855,-2.493 1.612,-3.502 0.756,-1.008 1.755,-1.805 2.998,-2.393 1.24,-0.586 2.803,-0.882 4.685,-0.882 0.671,0 1.235,0.024 1.688,0.076 0.452,0.05 0.915,0.146 1.386,0.275 l -0.404,5.139 c -0.337,-0.1 -0.695,-0.183 -1.082,-0.249 -0.388,-0.07 -0.798,-0.101 -1.236,-0.101 -0.874,0 -1.578,0.167 -2.115,0.503 -0.538,0.334 -0.949,0.773 -1.232,1.308 -0.288,0.541 -0.48,1.127 -0.58,1.765 -0.102,0.639 -0.152,1.261 -0.152,1.863 l 0,3.93 5.591,0 0,4.837 -5.591,0 0,19.346 -6.045,0 0,-19.346 z"
       id="path27"
       inkscape:connector-curvature="0"
       style="fill:#ffffff" /><path
       d="m 410.038,283.362 c 0,-1.914 0.345,-3.652 1.031,-5.212 0.688,-1.562 1.62,-2.896 2.797,-4.006 1.176,-1.107 2.569,-1.965 4.184,-2.571 1.61,-0.604 3.32,-0.905 5.136,-0.905 1.813,0 3.529,0.302 5.139,0.905 1.614,0.606 3.004,1.464 4.184,2.571 1.175,1.109 2.104,2.443 2.794,4.006 0.689,1.56 1.033,3.298 1.033,5.212 0,1.917 -0.344,3.661 -1.033,5.241 -0.689,1.578 -1.619,2.93 -2.794,4.055 -1.18,1.125 -2.569,2.008 -4.184,2.645 -1.609,0.639 -3.325,0.959 -5.139,0.959 -1.815,0 -3.525,-0.32 -5.136,-0.959 -1.614,-0.637 -3.008,-1.52 -4.184,-2.645 -1.177,-1.125 -2.108,-2.477 -2.797,-4.055 -0.686,-1.58 -1.031,-3.324 -1.031,-5.241 z m 6.146,0 c 0,0.94 0.143,1.884 0.43,2.823 0.285,0.939 0.713,1.779 1.284,2.518 0.57,0.742 1.292,1.344 2.167,1.814 0.871,0.469 1.913,0.707 3.121,0.707 1.209,0 2.25,-0.238 3.124,-0.707 0.872,-0.471 1.597,-1.072 2.167,-1.814 0.571,-0.738 0.999,-1.578 1.286,-2.518 0.283,-0.939 0.428,-1.883 0.428,-2.823 0,-0.939 -0.145,-1.871 -0.428,-2.793 -0.287,-0.926 -0.715,-1.758 -1.286,-2.494 -0.57,-0.738 -1.295,-1.334 -2.167,-1.79 -0.874,-0.452 -1.915,-0.68 -3.124,-0.68 -1.208,0 -2.25,0.228 -3.121,0.68 -0.875,0.456 -1.597,1.052 -2.167,1.79 -0.571,0.736 -0.999,1.568 -1.284,2.494 -0.288,0.922 -0.43,1.854 -0.43,2.793 z"
       id="path29"
       inkscape:connector-curvature="0"
       style="fill:#ffffff" /></g></svg>